<mxfile host="app.diagrams.net" agent="Mozilla/5.0 (Windows NT 10.0; Win64; x64) AppleWebKit/537.36 (KHTML, like Gecko) Chrome/128.0.0.0 Safari/537.36" version="24.7.14">
  <diagram name="Page-1" id="yXH6VxVyZ9U8mCtCZzZB">
    <mxGraphModel dx="712" dy="745" grid="1" gridSize="10" guides="1" tooltips="1" connect="1" arrows="1" fold="1" page="1" pageScale="1" pageWidth="850" pageHeight="1100" math="0" shadow="0">
      <root>
        <mxCell id="0" />
        <mxCell id="1" parent="0" />
        <mxCell id="fptkKVt143Qxo2_EMLtx-11" style="edgeStyle=orthogonalEdgeStyle;rounded=0;orthogonalLoop=1;jettySize=auto;html=1;entryX=0.5;entryY=0;entryDx=0;entryDy=0;" edge="1" parent="1" source="fptkKVt143Qxo2_EMLtx-1" target="fptkKVt143Qxo2_EMLtx-9">
          <mxGeometry relative="1" as="geometry" />
        </mxCell>
        <mxCell id="fptkKVt143Qxo2_EMLtx-12" style="edgeStyle=orthogonalEdgeStyle;rounded=0;orthogonalLoop=1;jettySize=auto;html=1;entryX=0.5;entryY=1;entryDx=0;entryDy=0;" edge="1" parent="1" source="fptkKVt143Qxo2_EMLtx-1" target="fptkKVt143Qxo2_EMLtx-7">
          <mxGeometry relative="1" as="geometry" />
        </mxCell>
        <mxCell id="fptkKVt143Qxo2_EMLtx-13" style="edgeStyle=orthogonalEdgeStyle;rounded=0;orthogonalLoop=1;jettySize=auto;html=1;entryX=0.5;entryY=1;entryDx=0;entryDy=0;" edge="1" parent="1" source="fptkKVt143Qxo2_EMLtx-1" target="fptkKVt143Qxo2_EMLtx-8">
          <mxGeometry relative="1" as="geometry" />
        </mxCell>
        <mxCell id="fptkKVt143Qxo2_EMLtx-14" style="edgeStyle=orthogonalEdgeStyle;rounded=0;orthogonalLoop=1;jettySize=auto;html=1;entryX=0.5;entryY=1;entryDx=0;entryDy=0;" edge="1" parent="1" source="fptkKVt143Qxo2_EMLtx-1" target="fptkKVt143Qxo2_EMLtx-10">
          <mxGeometry relative="1" as="geometry" />
        </mxCell>
        <mxCell id="fptkKVt143Qxo2_EMLtx-37" style="edgeStyle=orthogonalEdgeStyle;rounded=0;orthogonalLoop=1;jettySize=auto;html=1;entryX=0;entryY=0.5;entryDx=0;entryDy=0;" edge="1" parent="1" source="fptkKVt143Qxo2_EMLtx-1" target="fptkKVt143Qxo2_EMLtx-6">
          <mxGeometry relative="1" as="geometry" />
        </mxCell>
        <mxCell id="fptkKVt143Qxo2_EMLtx-54" style="edgeStyle=orthogonalEdgeStyle;rounded=0;orthogonalLoop=1;jettySize=auto;html=1;entryX=0;entryY=0;entryDx=0;entryDy=0;" edge="1" parent="1" source="fptkKVt143Qxo2_EMLtx-1" target="fptkKVt143Qxo2_EMLtx-4">
          <mxGeometry relative="1" as="geometry">
            <Array as="points">
              <mxPoint x="320" y="250" />
              <mxPoint x="320" y="400" />
              <mxPoint x="410" y="400" />
            </Array>
          </mxGeometry>
        </mxCell>
        <mxCell id="fptkKVt143Qxo2_EMLtx-1" value="&lt;font style=&quot;font-size: 15px;&quot;&gt;User&lt;/font&gt;" style="rounded=0;whiteSpace=wrap;html=1;" vertex="1" parent="1">
          <mxGeometry x="125" y="220" width="120" height="60" as="geometry" />
        </mxCell>
        <mxCell id="fptkKVt143Qxo2_EMLtx-19" style="edgeStyle=orthogonalEdgeStyle;rounded=0;orthogonalLoop=1;jettySize=auto;html=1;entryX=0.5;entryY=0;entryDx=0;entryDy=0;" edge="1" parent="1" source="fptkKVt143Qxo2_EMLtx-2" target="fptkKVt143Qxo2_EMLtx-17">
          <mxGeometry relative="1" as="geometry" />
        </mxCell>
        <mxCell id="fptkKVt143Qxo2_EMLtx-20" style="edgeStyle=orthogonalEdgeStyle;rounded=0;orthogonalLoop=1;jettySize=auto;html=1;entryX=0.5;entryY=1;entryDx=0;entryDy=0;" edge="1" parent="1" source="fptkKVt143Qxo2_EMLtx-2" target="fptkKVt143Qxo2_EMLtx-15">
          <mxGeometry relative="1" as="geometry" />
        </mxCell>
        <mxCell id="fptkKVt143Qxo2_EMLtx-21" style="edgeStyle=orthogonalEdgeStyle;rounded=0;orthogonalLoop=1;jettySize=auto;html=1;entryX=0.5;entryY=1;entryDx=0;entryDy=0;" edge="1" parent="1" source="fptkKVt143Qxo2_EMLtx-2" target="fptkKVt143Qxo2_EMLtx-16">
          <mxGeometry relative="1" as="geometry" />
        </mxCell>
        <mxCell id="fptkKVt143Qxo2_EMLtx-38" style="edgeStyle=orthogonalEdgeStyle;rounded=0;orthogonalLoop=1;jettySize=auto;html=1;entryX=1;entryY=0.5;entryDx=0;entryDy=0;" edge="1" parent="1" source="fptkKVt143Qxo2_EMLtx-2" target="fptkKVt143Qxo2_EMLtx-6">
          <mxGeometry relative="1" as="geometry" />
        </mxCell>
        <mxCell id="fptkKVt143Qxo2_EMLtx-55" style="edgeStyle=orthogonalEdgeStyle;rounded=0;orthogonalLoop=1;jettySize=auto;html=1;entryX=1;entryY=0;entryDx=0;entryDy=0;" edge="1" parent="1" source="fptkKVt143Qxo2_EMLtx-2" target="fptkKVt143Qxo2_EMLtx-4">
          <mxGeometry relative="1" as="geometry">
            <Array as="points">
              <mxPoint x="540" y="240" />
              <mxPoint x="540" y="400" />
              <mxPoint x="450" y="400" />
            </Array>
          </mxGeometry>
        </mxCell>
        <mxCell id="fptkKVt143Qxo2_EMLtx-2" value="&lt;font style=&quot;font-size: 15px;&quot;&gt;Library&lt;/font&gt;&lt;span style=&quot;color: rgba(0, 0, 0, 0); font-family: monospace; font-size: 0px; text-align: start; text-wrap: nowrap;&quot;&gt;%3CmxGraphModel%3E%3Croot%3E%3CmxCell%20id%3D%220%22%2F%3E%3CmxCell%20id%3D%221%22%20parent%3D%220%22%2F%3E%3CmxCell%20id%3D%222%22%20value%3D%22%26lt%3Bfont%20style%3D%26quot%3Bfont-size%3A%2015px%3B%26quot%3B%26gt%3BUser%26lt%3B%2Ffont%26gt%3B%22%20style%3D%22rounded%3D0%3BwhiteSpace%3Dwrap%3Bhtml%3D1%3B%22%20vertex%3D%221%22%20parent%3D%221%22%3E%3CmxGeometry%20x%3D%22180%22%20y%3D%22210%22%20width%3D%22120%22%20height%3D%2260%22%20as%3D%22geometry%22%2F%3E%3C%2FmxCell%3E%3C%2Froot%3E%3C%2FmxGraphModel%3E&lt;/span&gt;" style="rounded=0;whiteSpace=wrap;html=1;" vertex="1" parent="1">
          <mxGeometry x="620" y="210" width="120" height="60" as="geometry" />
        </mxCell>
        <mxCell id="fptkKVt143Qxo2_EMLtx-28" style="edgeStyle=orthogonalEdgeStyle;rounded=0;orthogonalLoop=1;jettySize=auto;html=1;entryX=0;entryY=0.5;entryDx=0;entryDy=0;" edge="1" parent="1" source="fptkKVt143Qxo2_EMLtx-3" target="fptkKVt143Qxo2_EMLtx-25">
          <mxGeometry relative="1" as="geometry" />
        </mxCell>
        <mxCell id="fptkKVt143Qxo2_EMLtx-32" style="edgeStyle=orthogonalEdgeStyle;rounded=0;orthogonalLoop=1;jettySize=auto;html=1;entryX=1;entryY=0.5;entryDx=0;entryDy=0;" edge="1" parent="1" source="fptkKVt143Qxo2_EMLtx-3" target="fptkKVt143Qxo2_EMLtx-24">
          <mxGeometry relative="1" as="geometry" />
        </mxCell>
        <mxCell id="fptkKVt143Qxo2_EMLtx-33" style="edgeStyle=orthogonalEdgeStyle;rounded=0;orthogonalLoop=1;jettySize=auto;html=1;entryX=1;entryY=0.5;entryDx=0;entryDy=0;" edge="1" parent="1" source="fptkKVt143Qxo2_EMLtx-3" target="fptkKVt143Qxo2_EMLtx-23">
          <mxGeometry relative="1" as="geometry" />
        </mxCell>
        <mxCell id="fptkKVt143Qxo2_EMLtx-34" style="edgeStyle=orthogonalEdgeStyle;rounded=0;orthogonalLoop=1;jettySize=auto;html=1;entryX=1;entryY=0.5;entryDx=0;entryDy=0;" edge="1" parent="1" source="fptkKVt143Qxo2_EMLtx-3" target="fptkKVt143Qxo2_EMLtx-22">
          <mxGeometry relative="1" as="geometry" />
        </mxCell>
        <mxCell id="fptkKVt143Qxo2_EMLtx-39" style="edgeStyle=orthogonalEdgeStyle;rounded=0;orthogonalLoop=1;jettySize=auto;html=1;entryX=0.5;entryY=1;entryDx=0;entryDy=0;" edge="1" parent="1" source="fptkKVt143Qxo2_EMLtx-3" target="fptkKVt143Qxo2_EMLtx-4">
          <mxGeometry relative="1" as="geometry" />
        </mxCell>
        <mxCell id="fptkKVt143Qxo2_EMLtx-3" value="&lt;span style=&quot;font-size: 15px;&quot;&gt;Book&lt;/span&gt;" style="rounded=0;whiteSpace=wrap;html=1;" vertex="1" parent="1">
          <mxGeometry x="370" y="615" width="120" height="60" as="geometry" />
        </mxCell>
        <mxCell id="fptkKVt143Qxo2_EMLtx-47" style="edgeStyle=orthogonalEdgeStyle;rounded=0;orthogonalLoop=1;jettySize=auto;html=1;entryX=0.5;entryY=1;entryDx=0;entryDy=0;" edge="1" parent="1" source="fptkKVt143Qxo2_EMLtx-4" target="fptkKVt143Qxo2_EMLtx-40">
          <mxGeometry relative="1" as="geometry" />
        </mxCell>
        <mxCell id="fptkKVt143Qxo2_EMLtx-48" style="edgeStyle=orthogonalEdgeStyle;rounded=0;orthogonalLoop=1;jettySize=auto;html=1;entryX=0.5;entryY=1;entryDx=0;entryDy=0;" edge="1" parent="1" source="fptkKVt143Qxo2_EMLtx-4" target="fptkKVt143Qxo2_EMLtx-41">
          <mxGeometry relative="1" as="geometry" />
        </mxCell>
        <mxCell id="fptkKVt143Qxo2_EMLtx-49" style="edgeStyle=orthogonalEdgeStyle;rounded=0;orthogonalLoop=1;jettySize=auto;html=1;entryX=0.5;entryY=1;entryDx=0;entryDy=0;" edge="1" parent="1" source="fptkKVt143Qxo2_EMLtx-4" target="fptkKVt143Qxo2_EMLtx-42">
          <mxGeometry relative="1" as="geometry" />
        </mxCell>
        <mxCell id="fptkKVt143Qxo2_EMLtx-50" style="edgeStyle=orthogonalEdgeStyle;rounded=0;orthogonalLoop=1;jettySize=auto;html=1;entryX=1;entryY=0.5;entryDx=0;entryDy=0;" edge="1" parent="1" source="fptkKVt143Qxo2_EMLtx-4" target="fptkKVt143Qxo2_EMLtx-45">
          <mxGeometry relative="1" as="geometry" />
        </mxCell>
        <mxCell id="fptkKVt143Qxo2_EMLtx-51" style="edgeStyle=orthogonalEdgeStyle;rounded=0;orthogonalLoop=1;jettySize=auto;html=1;entryX=1;entryY=0.5;entryDx=0;entryDy=0;" edge="1" parent="1" source="fptkKVt143Qxo2_EMLtx-4" target="fptkKVt143Qxo2_EMLtx-46">
          <mxGeometry relative="1" as="geometry" />
        </mxCell>
        <mxCell id="fptkKVt143Qxo2_EMLtx-52" style="edgeStyle=orthogonalEdgeStyle;rounded=0;orthogonalLoop=1;jettySize=auto;html=1;entryX=0;entryY=0.5;entryDx=0;entryDy=0;" edge="1" parent="1" source="fptkKVt143Qxo2_EMLtx-4" target="fptkKVt143Qxo2_EMLtx-43">
          <mxGeometry relative="1" as="geometry" />
        </mxCell>
        <mxCell id="fptkKVt143Qxo2_EMLtx-53" style="edgeStyle=orthogonalEdgeStyle;rounded=0;orthogonalLoop=1;jettySize=auto;html=1;entryX=0;entryY=0.5;entryDx=0;entryDy=0;" edge="1" parent="1" source="fptkKVt143Qxo2_EMLtx-4" target="fptkKVt143Qxo2_EMLtx-44">
          <mxGeometry relative="1" as="geometry" />
        </mxCell>
        <mxCell id="fptkKVt143Qxo2_EMLtx-4" value="CheckBook" style="rhombus;whiteSpace=wrap;html=1;" vertex="1" parent="1">
          <mxGeometry x="390" y="395" width="80" height="80" as="geometry" />
        </mxCell>
        <mxCell id="fptkKVt143Qxo2_EMLtx-59" style="edgeStyle=orthogonalEdgeStyle;rounded=0;orthogonalLoop=1;jettySize=auto;html=1;entryX=0.5;entryY=1;entryDx=0;entryDy=0;" edge="1" parent="1" source="fptkKVt143Qxo2_EMLtx-6" target="fptkKVt143Qxo2_EMLtx-58">
          <mxGeometry relative="1" as="geometry" />
        </mxCell>
        <mxCell id="fptkKVt143Qxo2_EMLtx-60" style="edgeStyle=orthogonalEdgeStyle;rounded=0;orthogonalLoop=1;jettySize=auto;html=1;entryX=0.5;entryY=0;entryDx=0;entryDy=0;" edge="1" parent="1" source="fptkKVt143Qxo2_EMLtx-6" target="fptkKVt143Qxo2_EMLtx-56">
          <mxGeometry relative="1" as="geometry" />
        </mxCell>
        <mxCell id="fptkKVt143Qxo2_EMLtx-61" style="edgeStyle=orthogonalEdgeStyle;rounded=0;orthogonalLoop=1;jettySize=auto;html=1;entryX=0.5;entryY=0;entryDx=0;entryDy=0;" edge="1" parent="1" source="fptkKVt143Qxo2_EMLtx-6" target="fptkKVt143Qxo2_EMLtx-57">
          <mxGeometry relative="1" as="geometry" />
        </mxCell>
        <mxCell id="fptkKVt143Qxo2_EMLtx-6" value="Membership" style="rhombus;whiteSpace=wrap;html=1;" vertex="1" parent="1">
          <mxGeometry x="390" y="70" width="80" height="80" as="geometry" />
        </mxCell>
        <mxCell id="fptkKVt143Qxo2_EMLtx-7" value="&lt;font style=&quot;font-size: 15px;&quot;&gt;&lt;u&gt;uid&lt;/u&gt;&lt;/font&gt;" style="ellipse;whiteSpace=wrap;html=1;" vertex="1" parent="1">
          <mxGeometry x="90" y="160" width="50" height="30" as="geometry" />
        </mxCell>
        <mxCell id="fptkKVt143Qxo2_EMLtx-8" value="&lt;span style=&quot;font-size: 15px;&quot;&gt;name&lt;/span&gt;" style="ellipse;whiteSpace=wrap;html=1;" vertex="1" parent="1">
          <mxGeometry x="160" y="160" width="50" height="30" as="geometry" />
        </mxCell>
        <mxCell id="fptkKVt143Qxo2_EMLtx-9" value="&lt;span style=&quot;font-size: 15px;&quot;&gt;membership_id&lt;/span&gt;" style="ellipse;whiteSpace=wrap;html=1;" vertex="1" parent="1">
          <mxGeometry x="120" y="320" width="130" height="40" as="geometry" />
        </mxCell>
        <mxCell id="fptkKVt143Qxo2_EMLtx-10" value="&lt;span style=&quot;font-size: 15px;&quot;&gt;bid&lt;/span&gt;" style="ellipse;whiteSpace=wrap;html=1;" vertex="1" parent="1">
          <mxGeometry x="230" y="160" width="50" height="30" as="geometry" />
        </mxCell>
        <mxCell id="fptkKVt143Qxo2_EMLtx-15" value="&lt;span style=&quot;font-size: 15px;&quot;&gt;&lt;u&gt;lid&lt;/u&gt;&lt;/span&gt;" style="ellipse;whiteSpace=wrap;html=1;" vertex="1" parent="1">
          <mxGeometry x="610" y="150" width="50" height="30" as="geometry" />
        </mxCell>
        <mxCell id="fptkKVt143Qxo2_EMLtx-16" value="&lt;span style=&quot;font-size: 15px;&quot;&gt;bid&lt;/span&gt;" style="ellipse;whiteSpace=wrap;html=1;" vertex="1" parent="1">
          <mxGeometry x="700" y="150" width="50" height="30" as="geometry" />
        </mxCell>
        <mxCell id="fptkKVt143Qxo2_EMLtx-17" value="&lt;span style=&quot;font-size: 15px;&quot;&gt;library_membership_id&lt;/span&gt;" style="ellipse;whiteSpace=wrap;html=1;" vertex="1" parent="1">
          <mxGeometry x="595" y="320" width="170" height="40" as="geometry" />
        </mxCell>
        <mxCell id="fptkKVt143Qxo2_EMLtx-22" value="&lt;span style=&quot;font-size: 15px;&quot;&gt;&lt;u&gt;bid&lt;/u&gt;&lt;/span&gt;" style="ellipse;whiteSpace=wrap;html=1;" vertex="1" parent="1">
          <mxGeometry x="245" y="680" width="50" height="30" as="geometry" />
        </mxCell>
        <mxCell id="fptkKVt143Qxo2_EMLtx-23" value="&lt;span style=&quot;font-size: 15px;&quot;&gt;author&lt;/span&gt;" style="ellipse;whiteSpace=wrap;html=1;" vertex="1" parent="1">
          <mxGeometry x="245" y="630" width="50" height="30" as="geometry" />
        </mxCell>
        <mxCell id="fptkKVt143Qxo2_EMLtx-24" value="&lt;span style=&quot;font-size: 15px;&quot;&gt;title&lt;/span&gt;" style="ellipse;whiteSpace=wrap;html=1;" vertex="1" parent="1">
          <mxGeometry x="245" y="580" width="50" height="30" as="geometry" />
        </mxCell>
        <mxCell id="fptkKVt143Qxo2_EMLtx-25" value="&lt;span style=&quot;font-size: 15px;&quot;&gt;year&lt;/span&gt;" style="ellipse;whiteSpace=wrap;html=1;" vertex="1" parent="1">
          <mxGeometry x="570" y="630" width="50" height="30" as="geometry" />
        </mxCell>
        <mxCell id="fptkKVt143Qxo2_EMLtx-40" value="&lt;span style=&quot;font-size: 15px;&quot;&gt;&lt;u&gt;lid&lt;/u&gt;&lt;/span&gt;" style="ellipse;whiteSpace=wrap;html=1;" vertex="1" parent="1">
          <mxGeometry x="345" y="320" width="50" height="30" as="geometry" />
        </mxCell>
        <mxCell id="fptkKVt143Qxo2_EMLtx-41" value="&lt;font style=&quot;font-size: 15px;&quot;&gt;uid&lt;/font&gt;" style="ellipse;whiteSpace=wrap;html=1;" vertex="1" parent="1">
          <mxGeometry x="405" y="320" width="50" height="30" as="geometry" />
        </mxCell>
        <mxCell id="fptkKVt143Qxo2_EMLtx-42" value="&lt;span style=&quot;font-size: 15px;&quot;&gt;&lt;u&gt;bid&lt;/u&gt;&lt;/span&gt;" style="ellipse;whiteSpace=wrap;html=1;" vertex="1" parent="1">
          <mxGeometry x="465" y="320" width="50" height="30" as="geometry" />
        </mxCell>
        <mxCell id="fptkKVt143Qxo2_EMLtx-43" value="&lt;span style=&quot;font-size: 15px;&quot;&gt;&lt;u&gt;date&lt;/u&gt;&lt;/span&gt;" style="ellipse;whiteSpace=wrap;html=1;" vertex="1" parent="1">
          <mxGeometry x="515" y="415" width="60" height="30" as="geometry" />
        </mxCell>
        <mxCell id="fptkKVt143Qxo2_EMLtx-44" value="&lt;span style=&quot;font-size: 15px;&quot;&gt;duration&lt;/span&gt;" style="ellipse;whiteSpace=wrap;html=1;" vertex="1" parent="1">
          <mxGeometry x="515" y="455" width="60" height="30" as="geometry" />
        </mxCell>
        <mxCell id="fptkKVt143Qxo2_EMLtx-45" value="&lt;span style=&quot;font-size: 15px;&quot;&gt;checkIn&lt;/span&gt;" style="ellipse;whiteSpace=wrap;html=1;" vertex="1" parent="1">
          <mxGeometry x="280" y="415" width="70" height="30" as="geometry" />
        </mxCell>
        <mxCell id="fptkKVt143Qxo2_EMLtx-46" value="&lt;span style=&quot;font-size: 15px;&quot;&gt;checkOut&lt;/span&gt;" style="ellipse;whiteSpace=wrap;html=1;" vertex="1" parent="1">
          <mxGeometry x="280" y="455" width="70" height="30" as="geometry" />
        </mxCell>
        <mxCell id="fptkKVt143Qxo2_EMLtx-56" value="&lt;span style=&quot;font-size: 15px;&quot;&gt;&lt;u&gt;lid&lt;/u&gt;&lt;/span&gt;" style="ellipse;whiteSpace=wrap;html=1;" vertex="1" parent="1">
          <mxGeometry x="370" y="190" width="50" height="30" as="geometry" />
        </mxCell>
        <mxCell id="fptkKVt143Qxo2_EMLtx-57" value="&lt;font style=&quot;font-size: 15px;&quot;&gt;&lt;u&gt;uid&lt;/u&gt;&lt;/font&gt;" style="ellipse;whiteSpace=wrap;html=1;" vertex="1" parent="1">
          <mxGeometry x="440" y="190" width="50" height="30" as="geometry" />
        </mxCell>
        <mxCell id="fptkKVt143Qxo2_EMLtx-58" value="&lt;span style=&quot;font-size: 15px;&quot;&gt;&lt;u&gt;date_of_acquisition&lt;/u&gt;&lt;/span&gt;" style="ellipse;whiteSpace=wrap;html=1;" vertex="1" parent="1">
          <mxGeometry x="365" width="130" height="40" as="geometry" />
        </mxCell>
      </root>
    </mxGraphModel>
  </diagram>
</mxfile>
